#Comment line ignore any data following # character 
#Hierarchical Translation and Rotation (.htr) file 
[Header]	
#Header keywords are followed by a single value 
FileType HTR		#Single word string
DataType HTRS		#Translation followed by rotation and scale data
FileVersion 1		#integer
NumSegments 84		#integer
NumFrames 2		#integer
DataFrameRate 30		#integer, data frame rate in this file
EulerRotationOrder ZYX
CalibrationUnits mm
RotationUnits Degrees
GlobalAxisofGravity Y
BoneLengthAxis Y
ScaleFactor 1.00
[SegmentNames&Hierarchy]
#CHILD	PARENT
MASTER GLOBAL
root MASTER
chest root
L_mid_tent01 root
R_mid_tent01 root
spine01 root
Bip01_Neck chest
L_humerus chest
R_humerus chest
weapon_bone chest
Bip01_Head Bip01_Neck
eye_left_bone Bip01_Head
eye_right_bone Bip01_Head
L_forearm L_humerus
L_front_hand L_forearm
L_weapon_bone L_forearm
L_front_hand01_01 L_front_hand
L_front_hand02_01 L_front_hand
L_front_hand03_01 L_front_hand
L_front_hand01_02 L_front_hand01_01
L_front_hand02_02 L_front_hand02_01
L_front_hand03_02 L_front_hand03_01
R_forearm R_humerus
R_front_hand R_forearm
R_weapon_bone R_forearm
R_front_hand01_01 R_front_hand
R_front_hand02_01 R_front_hand
R_front_hand03_01 R_front_hand
R_front_hand01_02 R_front_hand01_01
R_front_hand02_02 R_front_hand02_01
R_front_hand03_02 R_front_hand03_01
null_rope01_connect L_mid_tent01
Rope1_Seg01 null_rope01_connect
Rope1_Seg02 Rope1_Seg01
Rope1_Seg03 Rope1_Seg02
Rope1_Seg04 Rope1_Seg03
Rope1_Seg05 Rope1_Seg04
Rope1_Seg06 Rope1_Seg05
Rope1_Seg07 Rope1_Seg06
Rope1_Seg09 Rope1_Seg07
L_mid_hand01 Rope1_Seg09
L_mid_hand02 Rope1_Seg09
L_mid_hand03 Rope1_Seg09
null_rope02_connect R_mid_tent01
Rope2_Seg01 null_rope02_connect
Rope2_Seg02 Rope2_Seg01
Rope2_Seg03 Rope2_Seg02
Rope2_Seg04 Rope2_Seg03
Rope2_Seg05 Rope2_Seg04
Rope2_Seg06 Rope2_Seg05
Rope2_Seg07 Rope2_Seg06
Rope2_Seg09 Rope2_Seg07
R_mid_hand01 Rope2_Seg09
R_mid_hand02 Rope2_Seg09
R_mid_hand03 Rope2_Seg09
spine02 spine01
spine03 spine02
pelvis spine03
null_rope03_connect pelvis
null_rope04_connect pelvis
Rope3_Seg01 null_rope03_connect
Rope3_Seg02 Rope3_Seg01
Rope3_Seg03 Rope3_Seg02
Rope3_Seg04 Rope3_Seg03
Rope3_Seg05 Rope3_Seg04
Rope3_Seg06 Rope3_Seg05
Rope3_Seg07 Rope3_Seg06
Rope3_Seg08 Rope3_Seg07
Rope3_Seg09 Rope3_Seg08
R_rear_hand01 Rope3_Seg09
R_rear_hand02 Rope3_Seg09
R_rear_hand03 Rope3_Seg09
Rope4_Seg01 null_rope04_connect
Rope4_Seg02 Rope4_Seg01
Rope4_Seg03 Rope4_Seg02
Rope4_Seg04 Rope4_Seg03
Rope4_Seg05 Rope4_Seg04
Rope4_Seg06 Rope4_Seg05
Rope4_Seg07 Rope4_Seg06
Rope4_Seg08 Rope4_Seg07
Rope4_Seg09 Rope4_Seg08
L_rear_hand01 Rope4_Seg09
L_rear_hand02 Rope4_Seg09
L_rear_hand03 Rope4_Seg09
[BasePosition]
#SegmentName Tx, Ty, Tz, Rx, Ry, Rz, BoneLength
MASTER 0.000000 0.000000 0.000000 -90.000000 0.000000 0.000000 10.000000 
root 0.000000 0.000000 0.000000 0.000000 0.000000 0.000000 10.000000 
chest 0.000000 0.000000 0.000000 0.000000 0.000000 0.000000 10.000000 
L_mid_tent01 0.000000 0.000000 0.000000 0.000000 0.000000 0.000000 10.000000 
R_mid_tent01 0.000000 0.000000 0.000000 0.000000 0.000000 0.000000 10.000000 
spine01 0.000000 0.000000 0.000000 0.000000 0.000000 0.000000 10.000000 
Bip01_Neck 0.000000 0.000000 0.000000 0.000000 0.000000 0.000000 10.000000 
L_humerus 0.000000 0.000000 0.000000 0.000000 0.000000 0.000000 10.000000 
R_humerus 0.000000 0.000000 0.000000 0.000000 0.000000 0.000000 10.000000 
weapon_bone 0.000000 0.000000 0.000000 0.000000 0.000000 0.000000 10.000000 
Bip01_Head 0.000000 0.000000 0.000000 0.000000 0.000000 0.000000 10.000000 
eye_left_bone 0.000000 0.000000 0.000000 0.000000 0.000000 0.000000 10.000000 
eye_right_bone 0.000000 0.000000 0.000000 0.000000 0.000000 0.000000 10.000000 
L_forearm 0.000000 0.000000 0.000000 0.000000 0.000000 0.000000 10.000000 
L_front_hand 0.000000 0.000000 0.000000 0.000000 0.000000 0.000000 10.000000 
L_weapon_bone 0.000000 0.000000 0.000000 0.000000 0.000000 0.000000 10.000000 
L_front_hand01_01 0.000000 0.000000 0.000000 0.000000 0.000000 0.000000 10.000000 
L_front_hand02_01 0.000000 0.000000 0.000000 0.000000 0.000000 0.000000 10.000000 
L_front_hand03_01 0.000000 0.000000 0.000000 0.000000 0.000000 0.000000 10.000000 
L_front_hand01_02 0.000000 0.000000 0.000000 0.000000 0.000000 0.000000 10.000000 
L_front_hand02_02 0.000000 0.000000 0.000000 0.000000 0.000000 0.000000 10.000000 
L_front_hand03_02 0.000000 0.000000 0.000000 0.000000 0.000000 0.000000 10.000000 
R_forearm 0.000000 0.000000 0.000000 0.000000 0.000000 0.000000 10.000000 
R_front_hand 0.000000 0.000000 0.000000 0.000000 0.000000 0.000000 10.000000 
R_weapon_bone 0.000000 0.000000 0.000000 0.000000 0.000000 0.000000 10.000000 
R_front_hand01_01 0.000000 0.000000 0.000000 0.000000 0.000000 0.000000 10.000000 
R_front_hand02_01 0.000000 0.000000 0.000000 0.000000 0.000000 0.000000 10.000000 
R_front_hand03_01 0.000000 0.000000 0.000000 0.000000 0.000000 0.000000 10.000000 
R_front_hand01_02 0.000000 0.000000 0.000000 0.000000 0.000000 0.000000 10.000000 
R_front_hand02_02 0.000000 0.000000 0.000000 0.000000 0.000000 0.000000 10.000000 
R_front_hand03_02 0.000000 0.000000 0.000000 0.000000 0.000000 0.000000 10.000000 
null_rope01_connect 0.000000 0.000000 0.000000 0.000000 0.000000 0.000000 10.000000 
Rope1_Seg01 0.000000 0.000000 0.000000 0.000000 0.000000 0.000000 10.000000 
Rope1_Seg02 0.000000 0.000000 0.000000 0.000000 0.000000 0.000000 10.000000 
Rope1_Seg03 0.000000 0.000000 0.000000 0.000000 0.000000 0.000000 10.000000 
Rope1_Seg04 0.000000 0.000000 0.000000 0.000000 0.000000 0.000000 10.000000 
Rope1_Seg05 0.000000 0.000000 0.000000 0.000000 0.000000 0.000000 10.000000 
Rope1_Seg06 0.000000 0.000000 0.000000 0.000000 0.000000 0.000000 10.000000 
Rope1_Seg07 0.000000 0.000000 0.000000 0.000000 0.000000 0.000000 10.000000 
Rope1_Seg09 0.000000 0.000000 0.000000 0.000000 0.000000 0.000000 10.000000 
L_mid_hand01 0.000000 0.000000 0.000000 0.000000 0.000000 0.000000 10.000000 
L_mid_hand02 0.000000 0.000000 0.000000 0.000000 0.000000 0.000000 10.000000 
L_mid_hand03 0.000000 0.000000 0.000000 0.000000 0.000000 0.000000 10.000000 
null_rope02_connect 0.000000 0.000000 0.000000 0.000000 0.000000 0.000000 10.000000 
Rope2_Seg01 0.000000 0.000000 0.000000 0.000000 0.000000 0.000000 10.000000 
Rope2_Seg02 0.000000 0.000000 0.000000 0.000000 0.000000 0.000000 10.000000 
Rope2_Seg03 0.000000 0.000000 0.000000 0.000000 0.000000 0.000000 10.000000 
Rope2_Seg04 0.000000 0.000000 0.000000 0.000000 0.000000 0.000000 10.000000 
Rope2_Seg05 0.000000 0.000000 0.000000 0.000000 0.000000 0.000000 10.000000 
Rope2_Seg06 0.000000 0.000000 0.000000 0.000000 0.000000 0.000000 10.000000 
Rope2_Seg07 0.000000 0.000000 0.000000 0.000000 0.000000 0.000000 10.000000 
Rope2_Seg09 0.000000 0.000000 0.000000 0.000000 0.000000 0.000000 10.000000 
R_mid_hand01 0.000000 0.000000 0.000000 0.000000 0.000000 0.000000 10.000000 
R_mid_hand02 0.000000 0.000000 0.000000 0.000000 0.000000 0.000000 10.000000 
R_mid_hand03 0.000000 0.000000 0.000000 0.000000 0.000000 0.000000 10.000000 
spine02 0.000000 0.000000 0.000000 0.000000 0.000000 0.000000 10.000000 
spine03 0.000000 0.000000 0.000000 0.000000 0.000000 0.000000 10.000000 
pelvis 0.000000 0.000000 0.000000 0.000000 0.000000 0.000000 10.000000 
null_rope03_connect 0.000000 0.000000 0.000000 0.000000 0.000000 0.000000 10.000000 
null_rope04_connect 0.000000 0.000000 0.000000 0.000000 0.000000 0.000000 10.000000 
Rope3_Seg01 0.000000 0.000000 0.000000 0.000000 0.000000 0.000000 10.000000 
Rope3_Seg02 0.000000 0.000000 0.000000 0.000000 0.000000 0.000000 10.000000 
Rope3_Seg03 0.000000 0.000000 0.000000 0.000000 0.000000 0.000000 10.000000 
Rope3_Seg04 0.000000 0.000000 0.000000 0.000000 0.000000 0.000000 10.000000 
Rope3_Seg05 0.000000 0.000000 0.000000 0.000000 0.000000 0.000000 10.000000 
Rope3_Seg06 0.000000 0.000000 0.000000 0.000000 0.000000 0.000000 10.000000 
Rope3_Seg07 0.000000 0.000000 0.000000 0.000000 0.000000 0.000000 10.000000 
Rope3_Seg08 0.000000 0.000000 0.000000 0.000000 0.000000 0.000000 10.000000 
Rope3_Seg09 0.000000 0.000000 0.000000 0.000000 0.000000 0.000000 10.000000 
R_rear_hand01 0.000000 0.000000 0.000000 0.000000 0.000000 0.000000 10.000000 
R_rear_hand02 0.000000 0.000000 0.000000 0.000000 0.000000 0.000000 10.000000 
R_rear_hand03 0.000000 0.000000 0.000000 0.000000 0.000000 0.000000 10.000000 
Rope4_Seg01 0.000000 0.000000 0.000000 0.000000 0.000000 0.000000 10.000000 
Rope4_Seg02 0.000000 0.000000 0.000000 0.000000 0.000000 0.000000 10.000000 
Rope4_Seg03 0.000000 0.000000 0.000000 0.000000 0.000000 0.000000 10.000000 
Rope4_Seg04 0.000000 0.000000 0.000000 0.000000 0.000000 0.000000 10.000000 
Rope4_Seg05 0.000000 0.000000 0.000000 0.000000 0.000000 0.000000 10.000000 
Rope4_Seg06 0.000000 0.000000 0.000000 0.000000 0.000000 0.000000 10.000000 
Rope4_Seg07 0.000000 0.000000 0.000000 0.000000 0.000000 0.000000 10.000000 
Rope4_Seg08 0.000000 0.000000 0.000000 0.000000 0.000000 0.000000 10.000000 
Rope4_Seg09 0.000000 0.000000 0.000000 0.000000 0.000000 0.000000 10.000000 
L_rear_hand01 0.000000 0.000000 0.000000 0.000000 0.000000 0.000000 10.000000 
L_rear_hand02 0.000000 0.000000 0.000000 0.000000 0.000000 0.000000 10.000000 
L_rear_hand03 0.000000 0.000000 0.000000 0.000000 0.000000 0.000000 10.000000 
#Beginning of Data. Separated by tabs
#Fr	Tx	Ty	Tz	Rx	Ry	Rz	SF
[MASTER]
42 -610.011658 -6596.398438 84.056694 0.000000 -0.002347 -89.999992 6625.077637
43 -544.124939 -6673.751465 84.056694 0.000000 -0.002347 -90.000000 6696.423828
[root]
42 -44.776779 16.502279 1487.080078 -65.932320 -21.791018 179.398178 1487.845581
43 -38.761616 16.502281 1482.773438 -66.186157 -20.188929 174.550446 1483.371704
[chest]
42 -84.512650 -34.090519 0.000000 8.738868 9.863344 -167.356277 91.129311
43 -84.512650 -34.090519 0.000000 10.015024 9.901372 -167.932098 91.129311
[L_mid_tent01]
42 27.299372 22.179302 -249.918732 -14.044733 -2.957115 -16.548624 252.381744
43 27.299377 22.179306 -249.918732 -15.153294 -1.747731 -13.505769 252.381744
[R_mid_tent01]
42 23.228794 24.509907 226.238495 177.753113 -35.967793 60.137276 228.744751
43 23.228794 24.509907 226.238495 -177.351868 -40.397686 53.402023 228.744751
[spine01]
42 -0.361383 -0.195265 0.000000 0.001948 0.001309 22.213110 0.410763
43 -0.361383 -0.195265 0.000000 0.001948 0.001309 22.187912 0.410763
[Bip01_Neck]
42 165.484543 71.581718 0.000119 176.643677 -1.657967 43.431911 180.302734
43 165.484543 71.581718 0.000119 176.643677 -1.657967 43.431911 180.302734
[L_humerus]
42 -13.983130 -135.272980 -120.471481 68.686157 58.285339 154.252823 181.680161
43 -13.983130 -135.272980 -120.471481 63.613403 60.731865 149.657959 181.680161
[R_humerus]
42 -13.983309 -135.273102 125.287651 151.629471 -87.016663 -56.507095 184.909012
43 -13.983309 -135.273102 125.287651 94.588074 -87.714325 0.581896 184.909012
[weapon_bone]
42 235.964890 -300.705902 0.000000 0.000000 -89.951546 -128.212341 382.234833
43 235.964890 -300.705902 0.000000 0.000000 -89.951546 -128.212341 382.234833
[Bip01_Head]
42 213.444031 185.715424 11.777040 18.223381 6.152123 -43.833614 283.173553
43 213.444092 185.715439 11.777034 18.223381 6.152123 -43.833614 283.173645
[eye_left_bone]
42 -24.626970 125.451866 -64.772606 0.000000 -90.000000 -99.840431 143.318359
43 -24.626970 125.451866 -64.772606 0.000000 -90.000000 -99.840431 143.318359
[eye_right_bone]
42 -24.626970 125.451866 64.327362 0.000000 -89.965736 80.156380 143.117676
43 -24.626970 125.451866 64.327362 0.000000 -89.965736 80.156380 143.117676
[L_forearm]
42 322.776093 0.000000 -0.000119 0.000403 -0.002312 -109.755844 322.776093
43 322.776093 0.000000 -0.000119 0.000401 -0.002313 -109.690857 322.776093
[L_front_hand]
42 241.149185 -0.042021 -3.300071 -178.667953 -1.835447 -27.422342 241.171753
43 241.149185 -0.042021 -3.300071 -178.667953 -1.835447 -27.422342 241.171753
[L_weapon_bone]
42 156.183838 0.000000 0.000000 0.000014 0.000007 0.000001 156.183838
43 156.183838 0.000000 0.000000 0.000014 0.000007 0.000001 156.183838
[L_front_hand01_01]
42 86.095154 20.947098 -0.655860 -0.366594 -0.477154 75.385574 88.609184
43 86.095154 20.947098 -0.655860 -0.366594 -0.477154 75.385574 88.609184
[L_front_hand02_01]
42 86.935165 -11.437475 24.513514 154.399796 -59.883835 -61.369587 91.046425
43 86.935165 -11.437475 24.513514 154.399796 -59.883835 -61.369587 91.046425
[L_front_hand03_01]
42 86.637497 -14.123976 -20.424902 -153.913849 58.118130 -62.702866 90.126129
43 86.637497 -14.123976 -20.424902 -153.913849 58.118122 -62.702866 90.126129
[L_front_hand01_02]
42 71.020905 -0.000179 0.000030 0.000334 -0.002323 -106.378319 71.020905
43 71.020905 -0.000179 0.000030 0.000334 -0.002323 -106.379005 71.020905
[L_front_hand02_02]
42 71.020927 -0.000119 0.000060 0.000334 -0.002323 -106.378319 71.020927
43 71.020927 -0.000119 0.000060 0.000334 -0.002323 -106.379005 71.020927
[L_front_hand03_02]
42 71.020905 -0.000060 0.000060 0.000334 -0.002323 -106.378319 71.020905
43 71.020905 -0.000060 0.000060 0.000334 -0.002323 -106.379005 71.020905
[R_forearm]
42 322.776428 -0.000060 0.000030 0.201908 0.065760 -108.404594 322.776428
43 322.776428 -0.000060 0.000030 0.201944 0.065647 -108.340569 322.776428
[R_front_hand]
42 238.847015 -0.006795 2.210259 -2.635298 -10.645461 -26.312506 238.857239
43 238.847015 -0.006795 2.210259 -2.635298 -10.645461 -26.312506 238.857239
[R_weapon_bone]
42 155.664093 0.002503 -0.000030 0.003487 0.001180 -90.988930 155.664078
43 155.664093 0.002503 -0.000030 0.003487 0.001180 -90.988930 155.664078
[R_front_hand01_01]
42 87.624611 14.231146 22.918642 -154.633514 -59.950634 61.746063 91.683487
43 87.624611 14.231146 22.918642 -154.633484 -59.950607 61.746033 91.683487
[R_front_hand02_01]
42 89.356956 14.367283 -19.491137 154.602661 58.302849 63.744389 92.579636
43 89.356956 14.367283 -19.491137 154.602661 58.302849 63.744389 92.579636
[R_front_hand03_01]
42 87.286232 -22.307278 -0.143439 0.162155 -0.423168 -75.767921 90.091743
43 87.286232 -22.307278 -0.143439 0.162155 -0.423168 -75.767906 90.091743
[R_front_hand01_02]
42 71.020905 0.000060 0.000119 0.002323 -0.000334 106.381714 71.020905
43 71.020905 0.000060 0.000119 0.002323 -0.000334 106.381714 71.020905
[R_front_hand02_02]
42 71.020844 -0.000030 -0.000119 0.002323 -0.000334 106.381714 71.020836
43 71.020844 -0.000030 -0.000119 0.002323 -0.000334 106.381714 71.020836
[R_front_hand03_02]
42 71.020905 0.000000 0.000030 0.002323 -0.000334 106.381714 71.020905
43 71.020905 0.000000 0.000030 0.002323 -0.000334 106.381714 71.020905
[null_rope01_connect]
42 328.732483 0.000000 -0.000238 -11.273887 80.287605 -62.775715 328.732483
43 328.732483 0.000000 -0.000238 25.350033 80.277489 -30.689646 328.732483
[Rope1_Seg01]
42 0.000000 0.000000 0.000000 -9.463680 13.550319 80.623955 0.000000
43 0.000000 0.000000 0.000000 -5.762886 17.157700 71.510284 0.000000
[Rope1_Seg02]
42 139.999863 -0.000179 0.000000 5.181990 -6.205553 2.720507 139.999863
43 139.999863 -0.000179 0.000000 5.693033 -5.623013 3.287044 139.999863
[Rope1_Seg03]
42 139.999924 0.000060 -0.000060 7.404133 -8.189303 1.473355 139.999924
43 139.999924 0.000060 -0.000060 7.479371 -7.400652 2.740978 139.999924
[Rope1_Seg04]
42 139.999924 -0.000060 -0.000119 14.656970 -12.451042 -4.264324 139.999924
43 139.999924 -0.000060 -0.000119 15.795034 -11.796179 -1.941510 139.999924
[Rope1_Seg05]
42 139.999832 0.000119 -0.000060 -18.501133 13.284369 28.899534 139.999832
43 139.999832 0.000119 -0.000060 -24.591791 14.145788 26.598495 139.999832
[Rope1_Seg06]
42 139.999954 0.000119 -0.000060 -6.405563 7.487437 40.611919 139.999954
43 139.999954 0.000119 -0.000060 -10.822255 5.397179 36.431736 139.999954
[Rope1_Seg07]
42 139.999985 0.000060 0.000000 0.268547 -0.372300 11.121396 139.999985
43 139.999985 0.000060 0.000000 -0.923269 -1.533226 11.150804 139.999985
[Rope1_Seg09]
42 121.602913 0.000119 -0.000089 -89.793175 -1.359789 0.847147 121.602913
43 121.602913 0.000119 -0.000089 -89.793175 -1.359789 0.847147 121.602913
[L_mid_hand01]
42 103.859421 1.038730 8.195221 130.544373 -67.584534 -38.866943 104.187431
43 103.859421 1.038730 8.195221 130.544373 -67.584534 -38.866943 104.187431
[L_mid_hand02]
42 105.572853 -4.139662 -10.864139 -168.923172 43.409309 -73.498886 106.211075
43 105.572853 -4.139662 -10.864139 -168.923172 43.409309 -73.498886 106.211075
[L_mid_hand03]
42 104.641464 17.579376 -3.913581 -6.012627 17.808178 74.893677 106.179977
43 104.641464 17.579376 -3.913581 -6.012627 17.808174 74.893669 106.179977
[null_rope02_connect]
42 328.732849 0.000179 -0.000119 135.710098 -33.024845 167.001999 328.732849
43 328.732849 0.000179 -0.000119 138.799530 -32.032810 157.956375 328.732849
[Rope2_Seg01]
42 -0.000045 -0.000034 0.000000 59.531937 -23.137493 109.526894 0.000057
43 -0.000044 -0.000031 0.000000 71.394157 -16.599010 100.612953 0.000054
[Rope2_Seg02]
42 139.999741 -0.000060 -0.000119 8.117859 4.055922 -10.910794 139.999756
43 139.999741 -0.000060 -0.000119 7.651153 2.517516 -10.136498 139.999756
[Rope2_Seg03]
42 140.000107 0.000030 0.000000 15.567668 3.292449 -14.249946 140.000107
43 140.000107 0.000030 0.000000 12.307687 1.909786 -12.359633 140.000107
[Rope2_Seg04]
42 139.999802 0.000000 -0.000060 28.195120 0.179275 -18.565769 139.999802
43 139.999802 0.000000 -0.000060 18.268389 -0.106584 -14.197656 139.999802
[Rope2_Seg05]
42 139.999985 -0.000060 0.000119 4.907772 -4.060716 -1.807115 139.999985
43 139.999985 -0.000060 0.000119 0.014054 -3.733556 1.594588 139.999985
[Rope2_Seg06]
42 139.999893 -0.000030 -0.000119 -9.384640 -0.283725 8.085463 139.999893
43 139.999893 -0.000030 -0.000119 -6.264783 -2.835749 7.653585 139.999893
[Rope2_Seg07]
42 139.999893 0.000060 -0.000060 -2.169178 -1.928587 2.853460 139.999893
43 139.999893 0.000060 -0.000060 -1.162738 -2.452762 2.386478 139.999893
[Rope2_Seg09]
42 121.338966 0.000089 -0.000060 33.793236 -1.359788 -0.847141 121.338966
43 121.338966 0.000089 -0.000060 33.793236 -1.359788 -0.847141 121.338966
[R_mid_hand01]
42 104.680779 11.144459 -10.335981 -16.212063 45.237247 70.462852 105.778534
43 104.680779 11.144459 -10.335981 -16.212063 45.237247 70.462852 105.778534
[R_mid_hand02]
42 104.070427 2.443552 8.231699 49.067368 -67.749771 39.286453 104.424065
43 104.070427 2.443552 8.231699 49.067368 -67.749771 39.286453 104.424065
[R_mid_hand03]
42 106.028137 -11.221827 -5.996406 -177.101105 15.551026 -76.585571 106.788818
43 106.028137 -11.221827 -5.996406 -177.101105 15.551026 -76.585571 106.788818
[spine02]
42 129.756927 0.001550 0.000119 0.391551 -4.041544 -13.389401 129.756927
43 129.756927 0.001550 0.000119 0.385337 -4.042213 -13.306152 129.756927
[spine03]
42 78.613998 0.081737 -4.898993 1.916135 3.822338 16.778643 78.766541
43 78.613991 0.081737 -4.898993 1.911945 3.824881 16.721022 78.766525
[pelvis]
42 169.435242 0.051022 0.000000 -29.162436 3.524579 3.497798 169.435257
43 169.435242 0.051022 0.000000 -25.673029 3.358342 4.773544 169.435257
[null_rope03_connect]
42 -1.257226 -2.466202 137.391083 -125.282608 79.628830 138.791870 137.418976
43 -1.257226 -2.466202 137.391083 -122.236549 85.337341 138.778214 137.418976
[null_rope04_connect]
42 -1.259640 -2.480268 -137.844437 -125.282608 79.628830 138.791870 137.872513
43 -1.259640 -2.480268 -137.844437 -122.236549 85.337341 138.778214 137.872513
[Rope3_Seg01]
42 0.000000 0.000000 0.000000 -130.606079 2.813186 103.182693 0.000000
43 0.000000 0.000000 0.000000 -131.159302 6.240942 97.377174 0.000000
[Rope3_Seg02]
42 139.999924 -0.000119 0.000060 0.135549 -2.410103 -1.895891 139.999924
43 139.999924 -0.000119 0.000060 0.055132 -2.233285 -2.235431 139.999924
[Rope3_Seg03]
42 139.999924 -0.000119 0.000119 0.086591 -0.660950 -0.147207 139.999924
43 139.999924 -0.000119 0.000119 0.060525 -0.952317 -1.131455 139.999924
[Rope3_Seg04]
42 139.999924 0.000119 0.000000 0.026515 2.029404 2.520087 139.999924
43 139.999924 0.000119 0.000000 0.061816 2.014040 1.452103 139.999924
[Rope3_Seg05]
42 139.999924 -0.000238 0.000060 12.762585 -29.095757 -30.723555 139.999924
43 139.999924 -0.000238 0.000060 7.261087 -24.087610 -23.955065 139.999924
[Rope3_Seg06]
42 139.999893 -0.000119 -0.000060 13.620154 -17.339602 -14.177142 139.999893
43 139.999893 -0.000119 -0.000060 8.879429 -17.125772 -15.004172 139.999893
[Rope3_Seg07]
42 139.999771 0.000060 -0.000119 9.034711 -6.633877 -3.321052 139.999771
43 139.999771 0.000060 -0.000119 5.483840 -6.912727 -4.611577 139.999771
[Rope3_Seg08]
42 139.999985 -0.000060 0.000000 6.626209 -3.535510 -1.124942 139.999985
43 139.999985 -0.000060 0.000000 3.997277 -3.720173 -2.009779 139.999985
[Rope3_Seg09]
42 90.185997 -0.000179 -0.000060 89.793228 -1.359877 -0.847183 90.185997
43 90.185997 -0.000179 -0.000060 89.793228 -1.359877 -0.847183 90.185997
[R_rear_hand01]
42 103.366196 -6.073594 -10.757982 -177.714203 24.565960 -73.910950 104.101845
43 103.366196 -6.073594 -10.757982 -177.714203 24.565960 -73.910950 104.101845
[R_rear_hand02]
42 100.509819 12.039542 -7.992327 -12.874829 36.868488 72.167213 101.543350
43 100.509819 12.039542 -7.992327 -12.874829 36.868488 72.167213 101.543350
[R_rear_hand03]
42 101.539970 5.215704 5.435467 71.484581 -71.816628 21.513813 101.819031
43 101.539970 5.215704 5.435467 71.484581 -71.816628 21.513813 101.819031
[Rope4_Seg01]
42 0.000010 0.000007 -0.000027 48.527515 -4.828059 83.344963 0.000030
43 0.000010 0.000006 -0.000024 48.959652 2.814981 76.888397 0.000027
[Rope4_Seg02]
42 139.999985 0.000060 0.000119 1.090562 16.883944 10.151358 139.999985
43 139.999985 0.000060 0.000119 0.864782 14.143934 8.993911 139.999985
[Rope4_Seg03]
42 139.999924 0.000000 -0.000238 -0.121760 16.823347 10.713221 139.999924
43 139.999924 0.000000 -0.000238 0.000357 15.237582 10.374579 139.999924
[Rope4_Seg04]
42 139.999985 0.000000 0.000119 -0.590799 5.200157 3.203205 139.999985
43 139.999985 0.000000 0.000119 -0.775464 7.087108 4.746777 139.999985
[Rope4_Seg05]
42 139.999802 -0.000060 -0.000119 3.209139 -10.210340 -7.920549 139.999802
43 139.999802 -0.000060 -0.000119 3.170070 -9.045561 -8.037166 139.999802
[Rope4_Seg06]
42 139.999924 0.000000 0.000060 2.533439 -12.807674 -9.017498 139.999924
43 139.999924 0.000000 0.000060 2.657862 -12.159397 -9.684779 139.999924
[Rope4_Seg07]
42 139.999802 0.000000 0.000000 0.783810 -6.628854 -4.429171 139.999802
43 139.999802 0.000000 0.000000 0.731673 -5.862313 -4.479099 139.999802
[Rope4_Seg08]
42 139.999924 0.000000 0.000119 -1.192195 -4.358010 -2.843809 139.999924
43 139.999924 0.000000 0.000119 -1.235017 -3.809671 -2.852565 139.999924
[Rope4_Seg09]
42 90.185791 0.000060 0.000060 -135.617828 2.228885 0.850567 90.185791
43 90.185791 0.000060 0.000060 -135.617828 2.228885 0.850567 90.185791
[L_rear_hand01]
42 101.696655 -8.392275 -7.654577 -12.874829 -36.868488 107.832764 102.329041
43 101.696655 -8.392275 -7.654577 -12.874829 -36.868488 107.832764 102.329041
[L_rear_hand02]
42 102.726799 -1.568258 5.773216 71.484581 71.816628 158.486160 102.900848
43 102.726799 -1.568258 5.773216 71.484581 71.816628 158.486160 102.900848
[L_rear_hand03]
42 104.552910 9.721220 -10.420293 -177.714203 -24.565960 -106.089035 105.519653
43 104.552910 9.721220 -10.420293 -177.714203 -24.565960 -106.089035 105.519653
